<svg width="24" height="24" viewBox="0 0 24 24" fill="none" xmlns="http://www.w3.org/2000/svg">
<path d="M23.9343 7.05607C23.8781 5.78085 23.6719 4.90416 23.3765 4.14449C23.0717 3.33812 22.6029 2.61617 21.9886 2.01602C21.3885 1.40652 20.6618 0.932921 19.8648 0.632936C19.1007 0.337529 18.2286 0.131312 16.9534 0.0750879C15.6686 0.0141019 15.2608 0 12.0023 0C8.74389 0 8.33603 0.0141019 7.05606 0.0703262C5.78085 0.126551 4.90415 0.332951 4.14467 0.628174C3.33811 0.932922 2.61617 1.40176 2.01602 2.01602C1.40652 2.61617 0.933104 3.34288 0.632936 4.13991C0.337529 4.90416 0.131312 5.77609 0.0750878 7.0513C0.0141019 8.33604 0 8.7439 0 12.0023C0 15.2608 0.0141019 15.6686 0.0703262 16.9486C0.12655 18.2238 0.33295 19.1005 0.628357 19.8602C0.933104 20.6666 1.40652 21.3885 2.01602 21.9887C2.61617 22.5982 3.34287 23.0718 4.1399 23.3718C4.90415 23.6672 5.77609 23.8734 7.05148 23.9296C8.33127 23.986 8.73931 23.9999 11.9978 23.9999C15.2562 23.9999 15.6641 23.986 16.944 23.9296C18.2192 23.8734 19.0959 23.6672 19.8554 23.3718C21.4683 22.7482 22.7436 21.4729 23.3672 19.8602C23.6624 19.096 23.8688 18.2238 23.925 16.9486C23.9812 15.6686 23.9953 15.2608 23.9953 12.0023C23.9953 8.7439 23.9906 8.33604 23.9343 7.05607ZM21.7731 16.8549C21.7214 18.027 21.5246 18.6599 21.3605 19.0819C20.9572 20.1274 20.1274 20.9572 19.0818 21.3605C18.6599 21.5246 18.0224 21.7215 16.8548 21.7729C15.589 21.8293 15.2093 21.8433 12.0071 21.8433C8.80487 21.8433 8.42046 21.8293 7.15917 21.7729C5.98706 21.7215 5.35413 21.5246 4.93217 21.3605C4.41187 21.1682 3.93827 20.8634 3.55385 20.4649C3.15534 20.0758 2.85059 19.6069 2.65829 19.0866C2.4942 18.6647 2.29732 18.027 2.24586 16.8596C2.18945 15.5937 2.17553 15.2139 2.17553 12.0117C2.17553 8.80946 2.18945 8.42505 2.24586 7.16394C2.29732 5.99183 2.4942 5.3589 2.65829 4.93694C2.85059 4.41645 3.15534 3.94303 3.55861 3.55843C3.94761 3.15992 4.41645 2.85517 4.93693 2.66306C5.35889 2.49896 5.99659 2.30209 7.16393 2.25044C8.4298 2.19422 8.80964 2.18011 12.0117 2.18011C15.2187 2.18011 15.5983 2.19422 16.8596 2.25044C18.0317 2.30209 18.6646 2.49896 19.0866 2.66306C19.6069 2.85517 20.0805 3.15992 20.4649 3.55843C20.8634 3.94761 21.1682 4.41645 21.3605 4.93694C21.5246 5.3589 21.7214 5.99641 21.7731 7.16394C21.8293 8.42981 21.8434 8.80946 21.8434 12.0117C21.8434 15.2139 21.8293 15.589 21.7731 16.8549Z" fill="#F4F4FD"/>
<path d="M12.0024 5.83703C8.59867 5.83703 5.83709 8.59844 5.83709 12.0023C5.83709 15.4062 8.59867 18.1676 12.0024 18.1676C15.4062 18.1676 18.1676 15.4062 18.1676 12.0023C18.1676 8.59844 15.4062 5.83703 12.0024 5.83703ZM12.0024 16.0016C9.79422 16.0016 8.0031 14.2106 8.0031 12.0023C8.0031 9.79398 9.79422 8.00305 12.0024 8.00305C14.2107 8.00305 16.0016 9.79398 16.0016 12.0023C16.0016 14.2106 14.2107 16.0016 12.0024 16.0016Z" fill="#F4F4FD"/>
<path d="M19.8509 5.59332C19.8509 6.38816 19.2064 7.03263 18.4114 7.03263C17.6166 7.03263 16.9721 6.38816 16.9721 5.59332C16.9721 4.79831 17.6166 4.15401 18.4114 4.15401C19.2064 4.15401 19.8509 4.79831 19.8509 5.59332Z" fill="#F4F4FD"/>
</svg>
