<svg width="24" height="24" viewBox="0 0 24 24" fill="none" xmlns="http://www.w3.org/2000/svg">
<path d="M23.994 24.0001L24 23.9991V15.1971C24 10.8911 23.073 7.57406 18.039 7.57406C15.619 7.57406 13.995 8.90206 13.332 10.1611H13.262V7.97606H8.489V23.9991H13.459V16.0651C13.459 13.9761 13.855 11.9561 16.442 11.9561C18.991 11.9561 19.029 14.3401 19.029 16.1991V24.0001H23.994Z" fill="#F4F4FD"/>
<path d="M0.396002 7.97695H5.372V24H0.396002V7.97695Z" fill="#F4F4FD"/>
<path d="M2.882 0C1.291 0 0 1.291 0 2.882C0 4.473 1.291 5.791 2.882 5.791C4.473 5.791 5.764 4.473 5.764 2.882C5.763 1.291 4.472 0 2.882 0Z" fill="#F4F4FD"/>
</svg>
